<svg width="180" height="72" viewBox="0 0 180 72" fill="none" xmlns="http://www.w3.org/2000/svg">
<path d="M0 50.923L2.78688 46.4023C3.81244 47.2081 4.80085 47.8793 5.75207 48.4164C6.70333 48.9389 7.66203 49.3268 8.62815 49.5801C9.59423 49.8339 10.5752 49.961 11.5711 49.961C12.8493 49.961 13.9566 49.7668 14.893 49.3789C15.8442 48.976 16.58 48.4239 17.1002 47.7227C17.6204 47.0214 17.8805 46.201 17.8805 45.2611C17.8805 44.2019 17.5609 43.3215 16.9218 42.6203C16.2976 41.9045 15.4727 41.2924 14.4471 40.7853C13.4215 40.2633 12.3217 39.7558 11.1475 39.2637C10.0773 38.8158 8.99227 38.3312 7.8924 37.8087C6.8074 37.2866 5.81898 36.6675 4.92716 35.9513C4.03538 35.2204 3.31454 34.34 2.76459 33.3109C2.22949 32.2813 1.96197 31.0355 1.96197 29.5735C1.96197 27.6785 2.43758 26.0302 3.38884 24.6277C4.3401 23.2103 5.65548 22.1211 7.33502 21.3603C9.01456 20.5845 10.9319 20.1966 13.0871 20.1966C14.6032 20.1966 16.1564 20.3978 17.7467 20.8007C19.352 21.1886 20.9349 21.7853 22.4956 22.5911L20.1546 27.3577C19.0993 26.7314 17.9771 26.2465 16.7881 25.9031C15.599 25.5452 14.462 25.3661 13.3769 25.3661C12.3068 25.3661 11.363 25.5377 10.5455 25.8811C9.74287 26.209 9.11119 26.6865 8.65044 27.3131C8.20455 27.9248 7.98156 28.641 7.98156 29.4614C7.98156 30.4314 8.27885 31.2518 8.87338 31.9234C9.48278 32.5947 10.278 33.1913 11.2589 33.7134C12.2399 34.2209 13.2877 34.7204 14.4025 35.2129C15.5172 35.7054 16.632 36.235 17.7467 36.8017C18.8764 37.3537 19.9019 38.0104 20.8234 38.7712C21.7598 39.532 22.503 40.442 23.0529 41.5016C23.6177 42.5607 23.9001 43.8365 23.9001 45.3281C23.9001 47.2677 23.3948 48.976 22.3841 50.453C21.3882 51.9151 19.9837 53.0567 18.1703 53.8771C16.357 54.6829 14.239 55.0854 11.8163 55.0854C9.64628 55.0854 7.56539 54.735 5.57375 54.0338C3.58206 53.3326 1.72416 52.2955 0 50.923ZM36.8087 65.6035H30.9455L35.5825 54.3246L24.5244 32.0351H30.7002L38.1913 48.036L44.7904 32.0351H50.654L36.8087 65.6035ZM59.9288 54.4142H54.4442V32.0351H59.2152L59.4157 36.1079C60.1886 34.6759 61.2293 33.5642 62.5372 32.7738C63.8601 31.983 65.376 31.5876 67.0854 31.5876C67.5312 31.5876 67.9844 31.6172 68.4452 31.6772C68.9209 31.7368 69.3891 31.8263 69.8499 31.9455L69.1811 36.9137C68.2596 36.6454 67.3676 36.5108 66.5055 36.5108C65.1975 36.5108 64.0456 36.8167 63.0498 37.4283C62.069 38.04 61.3036 38.8908 60.7536 39.9795C60.2036 41.0541 59.9288 42.307 59.9288 43.7394V54.4142ZM83.4499 54.8617C81.1756 54.8617 79.1396 54.3546 77.341 53.34C75.5573 52.3255 74.1452 50.9455 73.105 49.1997C72.0793 47.4393 71.5667 45.4477 71.5667 43.2248C71.5667 41.0016 72.0793 39.0174 73.105 37.2716C74.1452 35.5113 75.5573 34.1238 77.341 33.1092C79.1396 32.0947 81.1756 31.5876 83.4499 31.5876C85.7088 31.5876 87.7303 32.0947 89.5139 33.1092C91.2976 34.1238 92.6948 35.5113 93.7055 37.2716C94.7312 39.0174 95.2438 41.0016 95.2438 43.2248C95.2438 45.4477 94.7312 47.4393 93.7055 49.1997C92.6948 50.9455 91.2976 52.3255 89.5139 53.34C87.7303 54.3546 85.7088 54.8617 83.4499 54.8617ZM83.405 49.916C84.5943 49.916 85.6569 49.6251 86.5933 49.0431C87.5298 48.4614 88.2653 47.6631 88.8004 46.6485C89.3504 45.634 89.6256 44.4852 89.6256 43.2024C89.6256 41.934 89.3504 40.8003 88.8004 39.8008C88.2653 38.7862 87.5298 37.9879 86.5933 37.4062C85.6569 36.8242 84.5943 36.5333 83.405 36.5333C82.2312 36.5333 81.1681 36.8242 80.2171 37.4062C79.2807 37.9879 78.5373 38.7862 77.9877 39.8008C77.4526 40.8003 77.1849 41.934 77.1849 43.2024C77.1849 44.4852 77.4526 45.634 77.9877 46.6485C78.5373 47.6631 79.2807 48.4614 80.2171 49.0431C81.1681 49.6251 82.2312 49.916 83.405 49.916Z" fill="#393A60"/>
<path d="M127.291 46.8036L109.61 71.6858C109.141 72.346 108.105 71.8784 108.29 71.0901L117.045 33.8024C117.2 33.1422 117.708 32.4499 118.305 32.1353L177.127 1.1423C177.998 0.683521 179.074 0.941805 179.641 1.74586C180.234 2.58577 180.077 3.74109 179.281 4.39222L127.291 46.8036Z" fill="#393A60"/>
<path d="M114.431 32.9284L99.092 61.5611C98.7285 62.2397 99.5168 62.9516 100.155 62.5211L108.863 56.6456L114.431 32.9284Z" fill="#8590AD"/>
</svg>
